<svg width="25" height="21" viewBox="0 0 25 21" fill="none" xmlns="http://www.w3.org/2000/svg">
<path d="M24.1071 0C23.5714 0 23.2143 0.357143 23.2143 0.892857V4.46429H10.625C10.1786 1.96429 8.03571 0 5.35714 0H2.67857C1.16071 0 0 1.16071 0 2.67857V5.35714V8.92857V9.01786C0 9.10714 -8.648e-08 9.19643 0.0892856 9.28571C0.0892856 9.375 0.178571 9.375 0.178571 9.46429C0.178571 9.55357 0.267857 9.55357 0.267857 9.55357C0.357143 9.64286 0.446428 9.73214 0.535714 9.73214L10.1786 13.8393L8.125 14.7321C7.5 13.9286 6.51786 13.3929 5.35714 13.3929C3.39286 13.3929 1.78571 15 1.78571 16.9643C1.78571 18.9286 3.39286 20.5357 5.35714 20.5357C7.32143 20.5357 8.92857 18.9286 8.92857 16.9643C8.92857 16.7857 8.92857 16.6071 8.83928 16.4286L12.5 14.9107L16.1607 16.4286C16.1607 16.6071 16.0714 16.7857 16.0714 16.9643C16.0714 18.9286 17.6786 20.5357 19.6429 20.5357C21.6071 20.5357 23.2143 18.9286 23.2143 16.9643C23.2143 15 21.6071 13.3929 19.6429 13.3929C18.4821 13.3929 17.5 13.9286 16.875 14.8214L14.8214 13.9286L24.4643 9.82143C24.5536 9.73214 24.6429 9.73214 24.7321 9.64286L24.8214 9.55357C24.8214 9.46429 24.9107 9.46429 24.9107 9.375C24.9107 9.28572 25 9.19643 25 9.10714V9.01786V5.44643V0.892857C25 0.357143 24.6429 0 24.1071 0ZM5.35714 18.75C4.375 18.75 3.57143 17.9464 3.57143 16.9643C3.57143 15.9821 4.375 15.1786 5.35714 15.1786C5.71429 15.1786 6.16071 15.3571 6.42857 15.5357L5 16.1607C4.55357 16.3393 4.375 16.875 4.55357 17.3214C4.64286 17.6786 5 17.8571 5.35714 17.8571C5.44643 17.8571 5.625 17.8571 5.71429 17.7679L7.14286 17.1429C7.05357 18.0357 6.25 18.75 5.35714 18.75ZM20 16.1607L18.5714 15.5357C18.8393 15.3571 19.1964 15.1786 19.6429 15.1786C20.625 15.1786 21.4286 15.9821 21.4286 16.9643C21.4286 17.9464 20.625 18.75 19.6429 18.75C18.75 18.75 17.9464 18.0357 17.8571 17.1429L19.2857 17.7679C19.375 17.8571 19.5536 17.8571 19.6429 17.8571C20 17.8571 20.3571 17.6786 20.4464 17.3214C20.625 16.875 20.4464 16.3393 20 16.1607ZM1.78571 2.67857C1.78571 2.14286 2.14286 1.78571 2.67857 1.78571H5.35714C7.05357 1.78571 8.39286 2.94643 8.83928 4.46429H1.78571V2.67857ZM12.5 12.9464L5.26786 9.82143H19.8214L12.5 12.9464Z" fill="#FFB700"/>
</svg>
