<svg width="28" height="28" viewBox="0 0 28 28" fill="none" xmlns="http://www.w3.org/2000/svg">
<path d="M9.27031 5.66553C9.27031 5.23897 9.62032 4.88897 10.0469 4.88897H17.9547C18.3813 4.88897 18.7313 5.23897 18.7313 5.66553V8.64054H20.8531V5.66553C20.8531 4.06865 19.5516 2.76709 17.9547 2.76709H10.0469C8.45 2.76709 7.14844 4.06865 7.14844 5.66553V8.64054H9.27031V5.66553Z" fill="#605BFF"/>
<path d="M4.03594 15.4982C3.98672 15.4982 3.93203 15.4982 3.88281 15.4928V23.8654C3.88281 24.6201 4.59922 25.2326 5.47969 25.2326H22.5258C23.4062 25.2326 24.1227 24.6201 24.1227 23.8654V15.4873C24.0734 15.4928 24.0242 15.4928 23.9695 15.4928H4.03594V15.4982ZM17.3523 21.8365H15.4766V23.7123H12.5234V21.8365H10.6477V18.8834H12.5234V17.0076H15.4766V18.8834H17.3523V21.8365Z" fill="#605BFF"/>
<path d="M22.1379 11.0249H25.184V10.6257C25.184 9.95303 24.6371 9.41162 23.9699 9.41162H4.03633C3.36367 9.41162 2.82227 9.9585 2.82227 10.6257V13.5132C2.82227 14.1858 3.36914 14.7327 4.03633 14.7327H23.9699C24.6426 14.7327 25.184 14.1858 25.184 13.5132V11.7905H22.1379C21.9246 11.7905 21.7551 11.621 21.7551 11.4077C21.7551 11.1944 21.9246 11.0249 22.1379 11.0249ZM21.2137 11.6757C21.1426 11.7468 21.0441 11.7851 20.9457 11.7851C20.8418 11.7851 20.7488 11.7413 20.6723 11.6757C20.6012 11.6046 20.5629 11.5062 20.5629 11.4022C20.5629 11.2983 20.6066 11.2054 20.6723 11.1288C20.7434 11.0577 20.8418 11.0194 20.9457 11.0194C21.0496 11.0194 21.1426 11.0577 21.2137 11.1288C21.2848 11.1999 21.3285 11.2983 21.3285 11.4022C21.3285 11.5062 21.2848 11.6046 21.2137 11.6757Z" fill="#605BFF"/>
</svg>
