<svg width="25" height="25" viewBox="0 0 25 25" fill="none" xmlns="http://www.w3.org/2000/svg">
<path d="M6.28591 10.9376C6.42809 12.0708 6.97913 13.1132 7.83554 13.8689C8.69196 14.6246 9.79481 15.0416 10.937 15.0416C12.0791 15.0416 13.182 14.6246 14.0384 13.8689C14.8948 13.1132 15.4458 12.0708 15.588 10.9376C16.0024 10.9424 16.4017 10.7824 16.6982 10.4928C16.9946 10.2032 17.1639 9.80771 17.1687 9.39331C17.1736 8.97891 17.0136 8.57956 16.724 8.28312C16.4344 7.98667 16.0389 7.81742 15.6245 7.81258C14.5012 7.81606 13.4109 7.43361 12.5359 6.72925C10.6297 8.14591 7.40571 7.81258 6.24946 7.81258C6.04427 7.81498 5.84156 7.85776 5.6529 7.9385C5.46425 8.01923 5.29334 8.13633 5.14994 8.28312C5.00654 8.4299 4.89346 8.60349 4.81715 8.79398C4.74084 8.98447 4.70279 9.18812 4.70518 9.39331C4.70758 9.5985 4.75036 9.80121 4.8311 9.98987C4.91183 10.1785 5.02894 10.3494 5.17572 10.4928C5.47216 10.7824 5.87151 10.9424 6.28591 10.9376ZM12.4995 8.33341C12.6376 8.33341 12.7701 8.38829 12.8677 8.48596C12.9654 8.58364 13.0203 8.71611 13.0203 8.85425C13.0203 8.99238 13.0752 9.12486 13.1728 9.22253C13.2705 9.32021 13.403 9.37508 13.5411 9.37508C13.6793 9.37508 13.8117 9.42995 13.9094 9.52763C14.0071 9.6253 14.062 9.75778 14.062 9.89592C14.062 10.034 14.0071 10.1665 13.9094 10.2642C13.8117 10.3619 13.6793 10.4167 13.5411 10.4167C11.9786 10.4167 11.4995 8.33341 12.4995 8.33341ZM12.7859 12.5886C12.887 12.67 12.954 12.7862 12.9739 12.9145C12.9938 13.0427 12.965 13.1738 12.8934 13.2819C12.8217 13.3901 12.7122 13.4676 12.5863 13.4993C12.4605 13.531 12.3274 13.5145 12.213 13.4532C11.8294 13.2168 11.3876 13.0916 10.937 13.0916C10.4863 13.0916 10.0446 13.2168 9.66091 13.4532C9.54656 13.5145 9.41342 13.531 9.28757 13.4993C9.16173 13.4676 9.05224 13.3901 8.98056 13.2819C8.90887 13.1738 8.88016 13.0427 8.90003 12.9145C8.9199 12.7862 8.98693 12.67 9.088 12.5886C9.63962 12.2344 10.2814 12.0461 10.937 12.0461C11.5925 12.0461 12.2343 12.2344 12.7859 12.5886ZM8.33279 9.37508C8.47092 9.37508 8.6034 9.32021 8.70107 9.22253C8.79875 9.12486 8.85362 8.99238 8.85362 8.85425C8.85362 8.71611 8.9085 8.58364 9.00617 8.48596C9.10385 8.38829 9.23632 8.33341 9.37446 8.33341C10.364 8.33341 9.89529 10.4167 8.33279 10.4167C8.19466 10.4167 8.06218 10.3619 7.9645 10.2642C7.86683 10.1665 7.81196 10.034 7.81196 9.89592C7.81196 9.75778 7.86683 9.6253 7.9645 9.52763C8.06218 9.42995 8.19466 9.37508 8.33279 9.37508Z" fill="#FF55BF"/>
<path d="M13.083 18.4115C12.6628 18.8155 12.1381 19.0938 11.568 19.2152C10.998 19.3365 10.4053 19.2961 9.85706 19.0983C9.3088 18.9006 8.82676 18.5535 8.46541 18.0962C8.10406 17.6389 7.87779 17.0896 7.81217 16.5105L4.37467 17.7397C3.52031 18.0531 2.76298 18.5849 2.17813 19.2822C1.59329 19.9794 1.20134 20.8177 1.04134 21.7136L0.520508 24.4792H15.8226C14.8406 23.8288 14.0624 22.9141 13.5777 21.8405C13.093 20.767 12.9215 19.5783 13.083 18.4115Z" fill="#FF55BF"/>
<path d="M8.85426 15.75C8.80881 16.0874 8.84 16.4307 8.9455 16.7545C9.051 17.0782 9.2281 17.3739 9.46363 17.6198C9.755 17.9115 10.1264 18.1102 10.5307 18.1907C10.935 18.2712 11.3542 18.2299 11.7351 18.0721C12.116 17.9143 12.4414 17.647 12.6703 17.3041C12.8992 16.9612 13.0213 16.5581 13.0209 16.1458V15.75C11.6818 16.276 10.1933 16.276 8.85426 15.75Z" fill="#FF55BF"/>
<path d="M12.4993 5.20836C12.8632 5.6935 13.335 6.08727 13.8774 6.35847C14.4198 6.62967 15.0179 6.77086 15.6243 6.77086H16.1452C16.1452 5.17711 16.2025 3.64586 14.6191 2.0469C13.8907 1.31873 12.9628 0.822864 11.9526 0.621991C10.9425 0.421118 9.89542 0.524259 8.94386 0.918373C7.99229 1.31249 7.17895 1.97988 6.60663 2.83618C6.03432 3.69248 5.72874 4.69925 5.72852 5.7292V6.77086C7.32747 6.77086 11.5202 7.1667 12.4993 5.20836Z" fill="#FF55BF"/>
<path d="M19.2708 14.0625C18.2407 14.0625 17.2337 14.368 16.3772 14.9403C15.5207 15.5126 14.8532 16.326 14.459 17.2777C14.0648 18.2294 13.9616 19.2766 14.1626 20.2869C14.3635 21.2972 14.8596 22.2253 15.588 22.9537C16.3164 23.6821 17.2444 24.1781 18.2547 24.3791C19.2651 24.5801 20.3123 24.4769 21.264 24.0827C22.2157 23.6885 23.0291 23.0209 23.6014 22.1644C24.1737 21.3079 24.4792 20.3009 24.4792 19.2708C24.4792 17.8895 23.9304 16.5647 22.9537 15.588C21.9769 14.6112 20.6522 14.0625 19.2708 14.0625ZM21.875 20.3125H20.3125V21.875H18.2292V20.3125H16.6667V18.2292H18.2292V16.6667H20.3125V18.2292H21.875V20.3125Z" fill="#FF55BF"/>
</svg>
