<svg width="25" height="25" viewBox="0 0 25 25" fill="none" xmlns="http://www.w3.org/2000/svg">
<g clip-path="url(#clip0)">
<path d="M3.12396 11.4583C2.85729 11.4583 2.59062 11.3562 2.3875 11.153C1.98021 10.7458 1.98021 10.0874 2.3875 9.68013L9.58125 2.48638C9.98854 2.07909 10.6469 2.07909 11.0542 2.48638C11.4615 2.89367 11.4615 3.552 11.0542 3.95929L3.86042 11.153C3.65729 11.3562 3.39062 11.4583 3.12396 11.4583Z" fill="#FF55BF"/>
<path d="M11.7182 6.25008C11.5151 6.25008 11.3151 6.17091 11.1661 6.02091L7.52026 2.37508C7.2963 2.15216 7.22964 1.81571 7.35047 1.52404C7.4713 1.23237 7.75672 1.04175 8.07235 1.04175H11.7182C12.1494 1.04175 12.4994 1.39175 12.4994 1.823V5.46883C12.4994 5.78446 12.3088 6.06987 12.0171 6.1907C11.9203 6.23029 11.8192 6.25008 11.7182 6.25008Z" fill="#FF55BF"/>
<path d="M7.29102 15.8853V21.8749H1.04102V15.8853C1.04102 15.1666 1.62435 14.5833 2.3431 14.5833H5.98893C6.70768 14.5833 7.29102 15.1666 7.29102 15.8853Z" fill="#FF55BF"/>
<path d="M15.625 11.7188V21.8751H9.375V11.7188C9.375 11.0001 9.95833 10.4167 10.6771 10.4167H14.3229C15.0417 10.4167 15.625 11.0001 15.625 11.7188Z" fill="#FF55BF"/>
<path d="M23.959 7.55208V21.875H17.709V7.55208C17.709 6.83333 18.2923 6.25 19.0111 6.25H22.6569C23.3757 6.25 23.959 6.83333 23.959 7.55208Z" fill="#FF55BF"/>
<path d="M24.2188 25H0.78125C0.35 25 0 24.65 0 24.2188C0 23.7875 0.35 23.4375 0.78125 23.4375H24.2188C24.65 23.4375 25 23.7875 25 24.2188C25 24.65 24.65 25 24.2188 25Z" fill="#FF55BF"/>
</g>
<defs>
<clipPath id="clip0">
<rect width="25" height="25" fill="white"/>
</clipPath>
</defs>
</svg>
