<svg width="25" height="25" viewBox="0 0 25 25" fill="none" xmlns="http://www.w3.org/2000/svg">
<g clip-path="url(#clip0)">
<path d="M22.8551 0H2.14746V18.8794C2.14702 19.165 2.25098 19.4284 2.44209 19.6224C2.62412 19.8069 2.86997 19.9086 3.13443 19.9086H7.33306L7.33311 23.9839C7.33311 24.5032 7.72202 24.9325 8.22437 25H22.855V0H22.8551ZM7.70186 6.58965C7.58882 6.54448 7.40298 6.49517 7.14414 6.44175C6.81143 6.37192 6.53408 6.29692 6.31226 6.21685C6.09038 6.13672 5.89727 6.00527 5.73301 5.82246C5.56865 5.6397 5.48652 5.39214 5.48652 5.07988C5.48652 4.71841 5.6169 4.4082 5.87783 4.14936C6.13867 3.89053 6.51353 3.72627 7.00244 3.65635V2.98472H7.87134V3.64404C8.36431 3.68931 8.78125 3.8084 9.12227 4.00146L8.68472 5.05522C8.26157 4.84165 7.86099 4.73481 7.48311 4.73481C7.10923 4.73481 6.92236 4.82524 6.92236 5.00596C6.92236 5.09224 6.97783 5.15693 7.08872 5.2001C7.19961 5.24321 7.38242 5.28945 7.63716 5.33872C7.96572 5.40034 8.24307 5.47119 8.46904 5.55132C8.69492 5.63145 8.89116 5.76191 9.05757 5.94263C9.22393 6.12344 9.30713 6.36997 9.30713 6.68213C9.30713 7.0272 9.18281 7.32817 8.93428 7.58491C8.68565 7.8417 8.33135 8.01113 7.87129 8.09331V8.77734H7.00239V8.12417C6.69424 8.10771 6.39942 8.0604 6.11812 7.98242C5.83667 7.90444 5.60357 7.80786 5.4187 7.69277L5.88706 6.63286C6.09243 6.75205 6.32246 6.84756 6.57725 6.91943C6.83193 6.99136 7.07642 7.0273 7.31055 7.0273C7.51182 7.0273 7.65562 7.00786 7.74194 6.96875C7.82822 6.92979 7.87134 6.87119 7.87134 6.79312C7.87134 6.70269 7.81475 6.63491 7.70186 6.58965ZM19.667 18.0177H18.2022V16.7607L14.0309 20.932L9.35264 16.2537L7.4561 18.1501L6.42031 17.1144L9.35264 14.182L14.0309 18.8604L17.2375 15.6538H15.8383V14.189H19.667V18.0177ZM19.7159 12.111H5.35928V10.6462H19.7159V12.111ZM19.7159 9.18135H12.8758V7.7165H19.7159V9.18135ZM19.7159 6.25166H12.8758V4.78682H19.7159V6.25166Z" fill="#605BFF"/>
<path d="M5.86821 21.3735H3.13442C2.78789 21.3735 2.45361 21.302 2.14746 21.1672V21.2391C2.14746 23.3162 3.83135 25.0001 5.9085 25.0001H6.08599C5.94648 24.6896 5.86826 24.3458 5.86826 23.984L5.86821 21.3735Z" fill="#605BFF"/>
</g>
<defs>
<clipPath id="clip0">
<rect width="25" height="25" fill="white"/>
</clipPath>
</defs>
</svg>
