<svg width="25" height="25" viewBox="0 0 25 25" fill="none" xmlns="http://www.w3.org/2000/svg">
<g clip-path="url(#clip0)">
<path d="M15.6816 10.1005L17.8334 7.0386C16.0777 4.44963 13.1113 2.74536 9.75466 2.74536C4.37598 2.74536 0 7.12134 0 12.5C0 17.8786 4.37598 22.2546 9.75461 22.2546C13.077 22.2546 16.0165 20.5851 17.7785 18.0411L18.1976 11.2569H16.2824C15.6877 11.2569 15.3404 10.5858 15.6816 10.1005ZM10.8258 17.0811C10.8258 17.0811 10.837 17.0806 10.489 17.0806V18.2126C10.489 18.618 10.1604 18.9469 9.75456 18.9469C9.34917 18.9469 9.0202 18.6179 9.0202 18.2126V17.0806H8.56387C7.6552 17.0742 6.79255 16.6601 6.19623 15.9443C5.93672 15.6329 5.97882 15.1697 6.29074 14.9103C6.58985 14.661 7.02902 14.69 7.29294 14.9685C7.30373 14.9798 7.31451 14.992 7.32476 15.0042C7.64299 15.3866 8.09784 15.6079 8.57275 15.6118H10.8112C10.8161 15.6123 10.821 15.6123 10.8259 15.6123C11.4823 15.6123 12.0146 15.0807 12.0146 14.4231C12.0146 13.7676 11.4809 13.2344 10.8254 13.2344C10.3434 13.2344 9.19686 13.2344 8.68392 13.2344C7.21858 13.2344 6.02642 12.0422 6.02642 10.5769C6.02642 9.101 7.22343 7.91124 8.70059 7.91938H9.0203V6.78747C9.0203 6.38208 9.34931 6.05306 9.75466 6.05306C10.1605 6.05306 10.4891 6.38208 10.4891 6.78747V7.91938H10.7588C11.8095 7.92673 12.7808 8.46869 13.3566 9.36908L13.3679 9.38668C13.5862 9.72845 13.4859 10.1823 13.1442 10.4007C12.8151 10.6106 12.3557 10.5365 12.119 10.1598C11.8174 9.68879 11.293 9.39256 10.7501 9.38815H8.69824C8.69333 9.38815 8.68843 9.38766 8.68402 9.38766C8.02696 9.38766 7.4953 9.91928 7.4953 10.5769C7.4953 11.2324 8.02843 11.7656 8.68402 11.7656H10.8255C12.2908 11.7656 13.4835 12.9578 13.4835 14.4231C13.4833 15.887 12.2989 17.0811 10.8258 17.0811Z" fill="#FF6533"/>
<path d="M23.7168 9.78819C23.2954 9.78819 22.9583 10.1443 22.9839 10.5681L23.5771 20.1717C23.6033 20.5943 23.2675 20.9514 22.8441 20.9514H19.852C19.4284 20.9514 19.0927 20.594 19.1187 20.1712C19.3884 15.7994 19.0283 21.6405 19.712 10.5681C19.7377 10.144 19.4008 9.78815 18.979 9.78815H17.6963C17.9778 9.38761 20.4247 5.90565 21.1478 4.87677C21.2454 4.73785 21.4511 4.7381 21.5487 4.87702L25.0001 9.78819H23.7168Z" fill="#FF6533"/>
</g>
<defs>
<clipPath id="clip0">
<rect width="25" height="25" fill="white"/>
</clipPath>
</defs>
</svg>
