<svg width="25" height="25" viewBox="0 0 25 25" fill="none" xmlns="http://www.w3.org/2000/svg">
<path d="M6.5073 9.61456L9.61456 6.50749L7.5428 4.43573L6.50711 5.47142L1.03569 0L0 1.03569L5.47142 6.50711L4.43573 7.5428L6.5073 9.61456Z" fill="#FF6533"/>
<path d="M23.9642 19.0884L23.0798 19.9729L21.008 17.9011L17.9004 21.0084L19.9723 23.0803L19.0883 23.9644L20.124 25.0001L24.9999 20.1241L23.9642 19.0884Z" fill="#FF6533"/>
<path d="M21.7883 12.9995L19.983 14.8046L11.6861 6.50708L6.50684 11.6863L8.5786 13.7579L11.1682 11.1684L12.2037 12.2039L9.61429 14.7936L10.65 15.8292L13.2394 13.2396L14.2751 14.2753L11.6857 16.8649L12.7217 17.901L15.3108 15.3118L16.3465 16.3475L13.7574 18.9367L14.8042 19.9835L12.9993 21.7886L14.0348 22.8241L22.8238 14.035L21.7883 12.9995Z" fill="#FF6533"/>
</svg>
